<svg width="19" height="19" viewBox="0 0 19 19" fill="none" xmlns="http://www.w3.org/2000/svg">
<path d="M2.00165 18.0148C1.45119 18.0148 0.979973 17.8188 0.587983 17.4268C0.195994 17.0348 0 16.5636 0 16.0132V2.00165C0 1.45119 0.195994 0.979973 0.587983 0.587983C0.979973 0.195994 1.45119 0 2.00165 0H9.00741V2.00165H2.00165V16.0132H16.0132V9.00741H18.0148V16.0132C18.0148 16.5636 17.8188 17.0348 17.4268 17.4268C17.0348 17.8188 16.5636 18.0148 16.0132 18.0148H2.00165ZM6.70551 12.7105L5.30436 11.3093L14.612 2.00165H11.0091V0H18.0148V7.00576H16.0132V3.4028L6.70551 12.7105Z" fill="white"/>
</svg>
