<svg width="60" height="64" viewBox="0 0 60 64" fill="none" xmlns="http://www.w3.org/2000/svg">
<path d="M4.94746 61.9678C5.23062 61.9678 5.51766 61.9826 5.74629 62.0128C5.85965 62.0278 5.96527 62.0473 6.05098 62.0733C6.09368 62.0863 6.13777 62.1029 6.17696 62.1241C6.19494 62.1339 6.21678 62.1472 6.23848 62.1651L6.3 62.2335L6.31856 62.2628L6.32637 62.2969C6.35689 62.4373 6.38482 62.6405 6.35762 62.8302C6.33053 63.0189 6.23725 63.2488 5.97969 63.3321L5.93965 63.3448L5.89766 63.3399C5.71529 63.3212 5.47811 63.3396 5.20723 63.3624C4.94649 63.3843 4.65685 63.4104 4.40157 63.3956C4.15343 63.3811 3.88253 63.3263 3.7043 63.1387C3.51375 62.9378 3.48125 62.6457 3.56954 62.2911L3.57735 62.2608L3.59493 62.2335C3.63045 62.177 3.68196 62.1436 3.71797 62.1241C3.75705 62.1029 3.80038 62.0863 3.84297 62.0733C3.92874 62.0473 4.03511 62.0278 4.14864 62.0128C4.37725 61.9826 4.66436 61.9679 4.94746 61.9678Z" fill="#78174F"/>
<path d="M53.1438 61.9512C53.3703 61.964 53.5993 61.9891 53.7893 62.0294C53.884 62.0495 53.9744 62.0748 54.052 62.1065C54.1245 62.1361 54.2071 62.1801 54.2658 62.2491C54.3753 62.3777 54.4509 62.514 54.465 62.6563C54.4802 62.8088 54.4231 62.9378 54.3293 63.0352C54.2411 63.1268 54.1217 63.1903 54.0002 63.2364C53.8764 63.2833 53.7348 63.3174 53.59 63.3419C53.3005 63.3907 52.9751 63.4048 52.6945 63.3985C52.4885 63.3939 52.2937 63.3787 52.1496 63.3536L52.0236 63.3253C51.8554 63.2762 51.725 63.1815 51.6408 63.0557C51.5579 62.9316 51.5277 62.7885 51.5363 62.6524C51.5503 62.432 51.6704 62.2085 51.8742 62.0821V62.0587L52.01 62.0128C52.1201 61.9756 52.3001 61.9565 52.4885 61.9473C52.685 61.9378 52.9163 61.9385 53.1438 61.9512Z" fill="#78174F"/>
<path fill-rule="evenodd" clip-rule="evenodd" d="M29.6877 48.4483C31.2752 48.4484 32.5654 49.7217 32.5656 51.2969C32.5656 52.8724 31.2753 54.1454 29.6877 54.1456C28.1 54.1455 26.8088 52.8724 26.8088 51.2969C26.809 49.7217 28.1002 48.4484 29.6877 48.4483ZM29.6984 49.8243C28.8719 49.8246 28.2045 50.4879 28.2043 51.2999C28.2043 52.112 28.8718 52.7761 29.6984 52.7764C30.5253 52.7764 31.1936 52.1122 31.1936 51.2999C31.1934 50.4877 30.5252 49.8243 29.6984 49.8243Z" fill="#78174F"/>
<path fill-rule="evenodd" clip-rule="evenodd" d="M18.6428 32.6348C20.0704 32.6345 21.5251 32.6753 22.0871 32.7413L22.2287 32.7628C22.9289 32.8957 23.5152 33.3878 23.7414 34.0606L23.7707 34.1632C23.7982 34.2752 23.82 34.4159 23.8391 34.5733C23.865 34.7875 23.8863 35.0474 23.9035 35.336C23.9379 35.9134 23.9571 36.6159 23.9641 37.3243C23.9779 38.7378 23.9449 40.192 23.8928 40.7335C23.8004 41.6955 23.1238 42.5553 22.1447 42.7637L21.9455 42.796C20.5697 42.9606 17.2138 42.9296 15.8127 42.7969C14.8144 42.7048 13.8602 42.1208 13.7258 41.0098C13.6449 40.3393 13.6057 39.0469 13.6057 37.7657C13.6057 36.4843 13.6448 35.1919 13.7258 34.5216C13.8197 33.7399 14.4541 32.94 15.2648 32.7774L15.5041 32.7296V32.7432C15.7822 32.7097 16.1707 32.6861 16.6145 32.669C17.212 32.6461 17.9265 32.635 18.6428 32.6348ZM21.757 34.1192C20.4474 33.9671 17.1889 33.9865 15.8479 34.1143C15.5844 34.1392 15.4223 34.182 15.3166 34.2598C15.2224 34.3293 15.1426 34.4502 15.1086 34.712C14.947 35.9501 14.9913 39.254 15.1096 40.5557C15.141 40.8967 15.1866 41.0793 15.2766 41.1934C15.3579 41.2964 15.5069 41.3796 15.8576 41.421L16.3625 41.4591C16.9991 41.4931 17.9905 41.5143 18.9797 41.5137C19.6365 41.5134 20.2883 41.5038 20.8283 41.4825C21.3744 41.4609 21.7888 41.4273 21.9836 41.3848C21.9863 41.3839 21.9912 41.3818 21.9982 41.379C22.0115 41.3736 22.0289 41.3662 22.049 41.3565C22.0893 41.3372 22.1371 41.3116 22.1848 41.2843C22.2326 41.2568 22.2784 41.2285 22.3137 41.2042C22.3554 41.1754 22.3649 41.1645 22.3596 41.171L22.4006 41.1124C22.4849 40.972 22.4826 40.8123 22.5051 40.5567C22.6288 39.1325 22.6371 36.4007 22.5051 34.9844C22.4736 34.6433 22.4282 34.4609 22.3381 34.3468C22.2771 34.2696 22.1781 34.2038 21.9846 34.1583L21.757 34.1192Z" fill="#78174F"/>
<path d="M42.2609 41.8145H27.5773V40.4356H42.2609V41.8145Z" fill="#78174F"/>
<path d="M45.6564 38.4591H27.5803V37.0811H45.6564V38.4591Z" fill="#78174F"/>
<path d="M32.3879 33.7208C32.5851 33.7208 32.7197 33.8429 32.7941 33.9757C32.8666 34.105 32.8967 34.264 32.8967 34.4102C32.8966 34.5563 32.8665 34.7146 32.7941 34.8438C32.7197 34.9766 32.5851 35.0987 32.3879 35.0987C31.7986 35.0987 31.0153 35.1422 30.2268 35.1641C29.5526 35.1829 28.8745 35.1854 28.3459 35.127V35.1378L28.1135 35.0987C28.068 35.0912 28.0162 35.0699 27.9807 35.0538C27.9388 35.0348 27.8913 35.0104 27.8459 34.9835C27.8011 34.9568 27.7523 34.9239 27.7111 34.8887C27.6906 34.8711 27.6676 34.8493 27.6477 34.8243C27.6293 34.8011 27.603 34.7628 27.591 34.712L27.5793 34.6602L27.594 34.6104L27.8537 33.7208H32.3879Z" fill="#78174F"/>
<path d="M45.6818 35.1104H34.2316V33.7237H45.6818V35.1104Z" fill="#78174F"/>
<path d="M42.2639 27.8262H27.5803V26.4473H42.2639V27.8262Z" fill="#78174F"/>
<path d="M22.7395 19.3966L23.2219 19.7218L23.3342 19.7979L23.3049 19.9307L23.1857 20.4737L23.1731 20.5323L23.1311 20.5733L17.1789 26.4454L17.1555 26.4688L17.1262 26.4835C16.9772 26.5553 16.8211 26.5432 16.6867 26.502C16.5537 26.4612 16.4237 26.3867 16.3078 26.3067C16.0821 26.1509 15.8493 25.9291 15.715 25.8175C15.5248 25.6595 15.1022 25.2851 14.7707 24.8819C14.6059 24.6814 14.4543 24.4617 14.3684 24.251C14.2848 24.0461 14.2428 23.7945 14.3938 23.585L14.4055 23.5694L14.4191 23.5567C14.5425 23.4408 14.6852 23.3773 14.8381 23.3643C14.9869 23.3518 15.1323 23.3883 15.2658 23.4464C15.5288 23.5609 15.7884 23.7799 16.0139 24.002C16.2414 24.2262 16.4551 24.4742 16.6184 24.6553C16.6926 24.7376 16.7557 24.8035 16.8059 24.8516L22.4895 19.418L22.6057 19.3067L22.7395 19.3966Z" fill="#78174F"/>
<path d="M45.6564 24.4678H27.5773V23.0899H45.6564V24.4678Z" fill="#78174F"/>
<path d="M32.5881 19.7413C32.7434 19.7884 32.8455 19.9024 32.8996 20.0294C32.9524 20.1535 32.9627 20.2952 32.9436 20.4278C32.906 20.6876 32.7387 20.9827 32.4152 21.0753C32.3379 21.0974 32.2206 21.1112 32.09 21.1221C31.9542 21.1335 31.7867 21.1421 31.5998 21.1485C31.2254 21.1613 30.7642 21.1653 30.302 21.1622C29.8396 21.159 29.3734 21.1493 28.9885 21.1339C28.7041 21.1225 28.4557 21.1076 28.2854 21.0899L28.1428 21.0714C27.9725 21.0419 27.8275 20.9822 27.7209 20.8848C27.6109 20.7842 27.5547 20.6554 27.5451 20.5196C27.5271 20.2636 27.6723 20.0006 27.8557 19.7979L27.9152 19.7325H32.5598L32.5881 19.7413Z" fill="#78174F"/>
<path d="M45.6818 21.1192H34.2346V19.7325H45.6818V21.1192Z" fill="#78174F"/>
<path fill-rule="evenodd" clip-rule="evenodd" d="M18.5686 4.6573C19.9558 4.6587 21.3699 4.70172 21.9426 4.76765C22.5413 4.8367 23.0019 5.06116 23.3273 5.42781C23.6501 5.79147 23.822 6.27541 23.8859 6.8321C24.024 8.03848 24.0264 10.5994 23.9367 12.1553L23.8928 12.754C23.8389 13.3164 23.6596 13.8008 23.3303 14.1632C22.9992 14.5274 22.5329 14.75 21.9416 14.8175C20.5085 14.979 17.1196 14.9645 15.6682 14.8233C14.7294 14.7324 13.9583 14.179 13.7561 13.2325L13.7229 13.0372C13.6475 12.4183 13.6051 11.0555 13.6037 9.71101C13.6023 8.36896 13.6421 7.01318 13.7356 6.41218C13.7929 6.04621 13.9991 5.68108 14.2688 5.39363C14.5383 5.1063 14.8903 4.87577 15.259 4.80085L15.2785 4.79695H15.2902C15.5634 4.74562 16.0357 4.7112 16.5959 4.68953C17.179 4.66697 17.8728 4.6566 18.5686 4.6573ZM21.7629 6.14265C20.8305 6.03552 19.7845 6.07074 18.716 6.12019C17.6629 6.16893 16.5857 6.23169 15.6047 6.17878C15.425 6.22879 15.3245 6.30602 15.26 6.40046C15.1865 6.50811 15.1431 6.65949 15.1174 6.87605C15.0452 7.48841 15.009 8.63545 15.009 9.79207C15.009 10.6596 15.0297 11.5221 15.0705 12.1573L15.1174 12.7091C15.1459 12.956 15.1978 13.123 15.2824 13.2344C15.3601 13.3366 15.4844 13.416 15.718 13.4473C16.9584 13.61 20.3178 13.5644 21.6291 13.4473C22.0387 13.4108 22.2161 13.3482 22.3137 13.251C22.4111 13.1536 22.4709 12.9789 22.508 12.5792C22.6318 11.2406 22.6571 8.1749 22.5061 6.87507C22.4724 6.58385 22.406 6.42947 22.3117 6.33601C22.2171 6.24239 22.0592 6.17596 21.7629 6.14265Z" fill="#78174F"/>
<path d="M42.2834 13.838H27.5803V12.4512H42.2834V13.838Z" fill="#78174F"/>
<path d="M45.6564 10.4805H27.5773V9.10164H45.6564V10.4805Z" fill="#78174F"/>
<path d="M32.5881 5.753C32.7434 5.8001 32.8455 5.91407 32.8996 6.04109C32.9524 6.16519 32.9627 6.30688 32.9436 6.43953C32.906 6.6993 32.7387 6.99437 32.4152 7.08699C32.3379 7.10908 32.2206 7.12293 32.09 7.13386C31.9542 7.14524 31.7867 7.1548 31.5998 7.16121C31.2254 7.17403 30.7642 7.17706 30.302 7.1739C29.8396 7.17073 29.3734 7.16101 28.9885 7.14558C28.7041 7.13418 28.4557 7.11937 28.2854 7.10164L28.1428 7.08308C27.9725 7.05362 27.8275 6.99393 27.7209 6.89656C27.6109 6.79594 27.5547 6.66712 27.5451 6.53132C27.5271 6.27533 27.6723 6.01235 27.8557 5.80964L27.9152 5.74421H32.5598L32.5881 5.753Z" fill="#78174F"/>
<path d="M45.6818 7.13093H34.2346V5.74421H45.6818V7.13093Z" fill="#78174F"/>
<path fill-rule="evenodd" clip-rule="evenodd" d="M47.5305 0.00104965C48.3036 -0.0253654 49.1107 0.449979 49.7121 1.0655C50.3154 1.68305 50.7656 2.49721 50.7658 3.21394V6.02449H55.5881C55.9921 6.02452 56.4336 6.2044 56.8547 6.47273C57.28 6.74385 57.7054 7.11855 58.0813 7.53621C58.4571 7.95395 58.789 8.42079 59.0246 8.88093C59.2573 9.33534 59.4047 9.8006 59.3928 10.213L59.3986 51.8096C59.3574 52.7827 58.7175 53.8786 57.8967 54.7364C57.4542 55.1988 56.9479 55.6035 56.4318 55.8936C55.9178 56.1826 55.3807 56.3653 54.8791 56.3653H35.0051C34.9816 56.3863 34.9703 56.4032 34.965 56.4171C34.9563 56.4401 34.9517 56.4746 34.9602 56.5294C34.9689 56.5854 34.9886 56.6497 35.0158 56.7276C35.041 56.7997 35.0752 56.8904 35.0998 56.9757L35.2189 57.3438C35.8661 59.1595 37.3081 60.8207 38.8957 61.9044L49.7932 61.9776H49.8039L49.8147 61.9786C50.4052 62.0454 50.7107 62.3337 50.7736 62.6768C50.8027 62.8357 50.7751 62.9922 50.7111 63.1143C50.6522 63.2267 50.5329 63.3583 50.3566 63.3585H7.63496C7.46637 63.3582 7.36105 63.2356 7.30879 63.1387C7.25322 63.0356 7.22457 62.9085 7.22188 62.7833C7.21676 62.5387 7.3118 62.2159 7.62032 62.0694L7.66036 62.0509L7.7043 62.0499L21.0871 61.9151C22.9747 60.6193 24.7539 58.6418 25.0256 56.3624H4.24043C3.78272 56.3631 3.28668 56.1739 2.81172 55.8839C2.33358 55.5919 1.85887 55.1872 1.44161 54.7315C1.02442 54.2758 0.658891 53.7638 0.40059 53.254C0.143682 52.7468 -0.0153574 52.2258 0.00117592 51.7579L0.0070353 10.0694C-0.00123594 9.66579 0.155201 9.2134 0.394731 8.77449C0.637358 8.32999 0.97601 7.87966 1.35567 7.47761C1.7352 7.07575 2.16105 6.71652 2.58125 6.45613C2.99688 6.19864 3.42868 6.02462 3.81465 6.02449H8.63692V2.9366C8.637 2.61403 8.76383 2.27134 8.9543 1.94832C9.1465 1.62243 9.41304 1.30097 9.71407 1.01765C10.0152 0.734284 10.3559 0.48401 10.7004 0.303784C11.0427 0.124771 11.4016 0.00779369 11.7356 0.00690902L47.5305 0.00104965ZM26.6164 56.3565C26.0647 58.5675 24.9187 60.3945 23.3332 61.9796H36.7766C35.2037 60.4144 33.9153 58.6762 33.5559 56.3702L26.6164 56.3565ZM1.39864 51.8966C1.39864 52.1892 1.52708 52.543 1.76387 52.9161C1.99874 53.286 2.33072 53.6585 2.71016 53.9854C3.08952 54.3122 3.51106 54.5896 3.92403 54.7716C4.33956 54.9546 4.73162 55.0353 5.05586 54.9923L5.06856 54.9903L54.6008 54.9844C54.8945 54.991 55.2559 54.8847 55.6428 54.6846C56.0265 54.4862 56.4201 54.2036 56.7746 53.88C57.1293 53.5561 57.4403 53.1947 57.6604 52.8428C57.8827 52.4873 58.0012 52.1593 58.0012 51.8966V47.5509H1.39864V51.8966ZM11.4611 1.49617C10.8471 1.76503 10.4277 2.04745 10.2219 2.64851V2.65046L10.217 2.66511C10.2144 2.67433 10.211 2.68607 10.2072 2.70027C10.1996 2.72912 10.1904 2.76607 10.1799 2.80867C10.1589 2.89391 10.1345 3.00016 10.1106 3.10457C10.0867 3.20883 10.0638 3.31102 10.0471 3.38972C10.0387 3.4291 10.032 3.46179 10.0275 3.48542C10.0259 3.4939 10.0245 3.50086 10.0236 3.50593V46.1759H49.3742V3.50789C49.3734 3.50243 49.3725 3.49339 49.3703 3.48152C49.3658 3.45758 49.3591 3.42457 49.3508 3.38484C49.3341 3.30519 49.311 3.20179 49.2873 3.09675C49.2636 2.99167 49.2385 2.88552 49.218 2.80085C49.2077 2.75848 49.1989 2.72145 49.1916 2.69343C49.188 2.6797 49.1843 2.66868 49.1818 2.66023C49.1803 2.65467 49.1789 2.64949 49.1789 2.64949L49.1311 2.53328C49.0052 2.26512 48.7869 2.01209 48.5158 1.80964C48.2081 1.57983 47.8464 1.42595 47.507 1.38484L11.4611 1.49617ZM51.1975 12.0186C51.0564 12.0236 50.9111 12.0256 50.7658 12.0245V46.1759H53.3361V12.9005C53.3286 12.8868 53.3163 12.8679 53.3 12.8438C53.2618 12.7872 53.2077 12.7156 53.1477 12.6417C53.0878 12.568 53.0239 12.4944 52.9689 12.4346L52.8566 12.3223C52.5558 12.0926 52.2056 12.0216 51.8107 12.0089C51.6125 12.0025 51.4096 12.0111 51.1975 12.0186ZM3.95625 7.40242C3.79955 7.40263 3.55976 7.49339 3.26778 7.67781C2.98365 7.8573 2.67738 8.10827 2.39473 8.38777C2.11195 8.66743 1.8574 8.97015 1.67598 9.25105C1.48922 9.54023 1.39867 9.77676 1.39864 9.92976V46.1729H4.67793V12.7296C4.67794 12.7 4.68445 12.6761 4.68672 12.668C4.68988 12.6569 4.69353 12.6464 4.69649 12.6387C4.70254 12.6231 4.7105 12.6057 4.71797 12.5899C4.73314 12.558 4.75325 12.5181 4.77657 12.4747C4.82386 12.3866 4.88776 12.2747 4.95332 12.1622C5.01904 12.0494 5.08799 11.9335 5.14668 11.8389C5.20208 11.7497 5.25617 11.6658 5.28926 11.6251C5.74772 11.0557 6.34277 10.8032 6.967 10.6964C7.51349 10.6029 8.09747 10.6193 8.63985 10.6348V7.40242H3.95625ZM50.7658 10.6348C51.31 10.62 51.9186 10.6112 52.4875 10.7178C53.1344 10.8392 53.7531 11.1137 54.1828 11.713L54.1838 11.7139C54.2445 11.7997 54.3779 12.0535 54.4895 12.2803C54.547 12.3974 54.6025 12.5149 54.6438 12.6094C54.6641 12.6562 54.6822 12.6999 54.6955 12.7364C54.7021 12.7545 54.7081 12.774 54.7131 12.7921C54.7168 12.8054 54.7247 12.8354 54.7248 12.8692V46.1729H58.0041V10.0694C58.004 9.87722 57.9085 9.61293 57.7229 9.30867C57.5406 9.01 57.2849 8.69473 56.9953 8.4073C56.7056 8.1198 56.3872 7.86431 56.0842 7.68269C55.7762 7.49809 55.5053 7.40252 55.3049 7.40242H50.7658V10.6348ZM8.09004 11.9698C7.79154 11.9857 7.45537 12.0331 7.1418 12.1143C6.82558 12.1963 6.54462 12.3096 6.34786 12.4473C6.15078 12.5854 6.06682 12.7262 6.06661 12.8663V46.17H8.63692V11.9825C8.49534 11.9637 8.30675 11.9583 8.09004 11.9698Z" fill="#78174F"/>
</svg>
