<svg width="59" height="60" viewBox="0 0 59 60" fill="none" xmlns="http://www.w3.org/2000/svg">
<path d="M59 18.2858C59 20.0922 57.5589 21.5557 55.7802 21.5557C54.0015 21.5557 52.5604 20.0922 52.5604 18.2858C52.5604 16.4794 54.0015 15.0158 55.7802 15.0158C57.5589 15.0158 59 16.4794 59 18.2858ZM57.7092 18.2829C57.7092 17.2054 56.8497 16.3325 55.7887 16.3325C54.7278 16.3325 53.8682 17.2054 53.8682 18.2829C53.8682 19.3604 54.7278 20.2334 55.7887 20.2334C56.8497 20.2334 57.7092 19.3604 57.7092 18.2829Z" fill="#78174F"/>
<path d="M5.1403 41.1092C5.1403 42.5497 3.98855 43.7194 2.57015 43.7194C1.15174 43.7194 0 42.5497 0 41.1092C0 39.6687 1.15174 38.499 2.57015 38.499C3.98855 38.499 5.1403 39.6687 5.1403 41.1092ZM3.84388 41.1034C3.84388 40.3861 3.27084 39.8012 2.56164 39.8012C1.85244 39.8012 1.2794 40.3832 1.2794 41.1034C1.2794 41.8237 1.85244 42.4057 2.56164 42.4057C3.27084 42.4057 3.84388 41.8237 3.84388 41.1034Z" fill="#78174F"/>
<path d="M4.18147 51.5298C4.71729 51.5298 5.15166 51.0887 5.15166 50.5445C5.15166 50.0003 4.71729 49.5592 4.18147 49.5592C3.64565 49.5592 3.21128 50.0003 3.21128 50.5445C3.21128 51.0887 3.64565 51.5298 4.18147 51.5298Z" fill="#78174F"/>
<path d="M55.4625 29.3547C55.9952 29.3547 56.427 28.9161 56.427 28.3751C56.427 27.8341 55.9952 27.3956 55.4625 27.3956C54.9298 27.3956 54.498 27.8341 54.498 28.3751C54.498 28.9161 54.9298 29.3547 55.4625 29.3547Z" fill="#78174F"/>
<path d="M54.183 53.4832C54.7157 53.4832 55.1476 53.0446 55.1476 52.5036C55.1476 51.9626 54.7157 51.5241 54.183 51.5241C53.6504 51.5241 53.2185 51.9626 53.2185 52.5036C53.2185 53.0446 53.6504 53.4832 54.183 53.4832Z" fill="#78174F"/>
<path d="M4.18433 3.28147C4.71545 3.28147 5.14601 2.84421 5.14601 2.30481C5.14601 1.76541 4.71545 1.32815 4.18433 1.32815C3.65321 1.32815 3.22265 1.76541 3.22265 2.30481C3.22265 2.84421 3.65321 3.28147 4.18433 3.28147Z" fill="#78174F"/>
<path d="M2.89075 28.0265C3.41874 28.0265 3.84675 27.5918 3.84675 27.0556C3.84675 26.5194 3.41874 26.0847 2.89075 26.0847C2.36276 26.0847 1.93474 26.5194 1.93474 27.0556C1.93474 27.5918 2.36276 28.0265 2.89075 28.0265Z" fill="#78174F"/>
<path d="M52.2597 4.54912C52.7861 4.54912 53.2129 4.11573 53.2129 3.5811C53.2129 3.04648 52.7861 2.61308 52.2597 2.61308C51.7333 2.61308 51.3065 3.04648 51.3065 3.5811C51.3065 4.11573 51.7333 4.54912 52.2597 4.54912Z" fill="#78174F"/>
<path d="M11.5969 0.328436L12.0139 0.0345722L43.0656 0C45.9818 2.45174 48.4612 5.46816 51.2356 8.09277V54.529L51.0229 54.745H43.8032L43.5904 54.9611V59.7061L43.1734 60H6.91615C6.42822 59.8387 6.39134 59.3086 6.35162 58.8476L6.45091 7.03832L6.7119 6.58312H11.3841L11.5969 6.36704V0.328436ZM42.3167 1.40594H12.8706V3.27571H30.9212C31.5028 3.27571 31.6021 4.56929 30.9212 4.56929H12.8706V53.4486H49.9591V9.17027H42.8103C42.7763 9.17027 42.3139 8.70354 42.3139 8.66609V1.40594H42.3167ZM48.969 7.73264L43.5904 2.41429V7.73264H48.969ZM11.5969 7.87669H7.7757V58.6229H42.3167V54.9582L42.1039 54.7422H11.8096L11.5969 54.5261V7.87669Z" fill="#78174F"/>
<path d="M42.9691 21.5413C42.9691 28.0207 37.7976 33.2757 31.4148 33.2757C25.032 33.2757 19.8605 28.0236 19.8605 21.5413C19.8605 15.0591 25.032 9.80697 31.4148 9.80697C37.7976 9.80697 42.9691 15.0591 42.9691 21.5413ZM41.6699 21.5327C41.6699 15.7793 37.0771 11.1149 31.412 11.1149C25.7469 11.1149 21.1541 15.7793 21.1541 21.5327C21.1541 27.2861 25.7469 31.9504 31.412 31.9504C37.0771 31.9504 41.6699 27.2861 41.6699 21.5327Z" fill="#78174F"/>
<path d="M16.5074 42.4057L45.2244 42.3711C45.6642 42.3711 46.172 42.4921 46.1521 43.0251C46.1521 43.6906 45.4486 43.7741 44.9408 43.8231C36.0672 43.3938 26.7058 44.3734 17.8918 43.8231C16.9131 43.7626 15.1486 43.6445 16.5103 42.4085L16.5074 42.4057Z" fill="#78174F"/>
<path d="M16.4819 41.0861L16.1642 40.9018C15.8691 40.6367 16.2436 39.7926 16.4819 39.7926H45.7861C46.2343 39.7926 46.2343 41.0861 45.7861 41.0861H16.4819Z" fill="#78174F"/>
<path d="M16.34 46.2604C15.9202 46.1279 15.9372 45.2233 16.445 45.0735L45.3634 44.9669C46.1946 44.9755 46.2372 45.592 45.9989 46.2604H16.34Z" fill="#78174F"/>
<path d="M16.5074 37.2313L45.5081 37.1968C46.5691 37.3379 46.2684 38.6286 45.2244 38.5047L16.3287 38.3665L16.0479 37.9372L16.5074 37.2342V37.2313Z" fill="#78174F"/>
<path d="M34.8842 47.6981C35.2871 47.8133 35.3495 48.5941 35.0006 48.8591L16.4421 48.885C15.7897 48.5797 16.079 47.6981 16.3372 47.6981H34.8842Z" fill="#78174F"/>
<path d="M29.7667 29.9654C29.4064 29.565 29.2078 28.8966 29.1539 28.3607C28.9582 26.4103 28.9412 21.6796 29.1681 19.7522C29.5029 16.8914 33.324 17.0268 33.6701 19.6053C33.8914 21.2648 33.8942 26.9807 33.6701 28.6373C33.4091 30.556 31.0773 31.4175 29.7695 29.9654H29.7667ZM30.7454 29.1155C31.3099 29.6514 32.3085 29.2481 32.4106 28.3665C32.7141 25.7591 32.1865 22.5612 32.3992 19.8905C32.0843 18.5278 30.5837 18.6402 30.422 20.0231C30.2206 21.7488 30.2319 26.4852 30.422 28.2253C30.4475 28.4471 30.6007 28.983 30.7454 29.1184V29.1155Z" fill="#78174F"/>
<path d="M33.6786 14.6672C33.6786 15.932 32.6687 16.9577 31.4233 16.9577C30.178 16.9577 29.1681 15.932 29.1681 14.6672C29.1681 13.4025 30.178 12.3768 31.4233 12.3768C32.6687 12.3768 33.6786 13.4025 33.6786 14.6672ZM32.3765 14.6788C32.3765 14.1515 31.9566 13.7252 31.4375 13.7252C30.9184 13.7252 30.4985 14.1515 30.4985 14.6788C30.4985 15.206 30.9184 15.6324 31.4375 15.6324C31.9566 15.6324 32.3765 15.206 32.3765 14.6788Z" fill="#78174F"/>
</svg>
